<svg width="10" height="10" viewBox="0 0 10 10" fill="none" xmlns="http://www.w3.org/2000/svg">
<path d="M3.07512 8.75421C3.1235 8.80272 3.18098 8.8412 3.24425 8.86745C3.30753 8.89371 3.37536 8.90723 3.44387 8.90723C3.51238 8.90723 3.58021 8.89371 3.64349 8.86745C3.70677 8.8412 3.76424 8.80272 3.81262 8.75421L7.27512 5.29171C7.31375 5.25316 7.34439 5.20738 7.3653 5.15697C7.38621 5.10657 7.39697 5.05253 7.39697 4.99796C7.39697 4.94339 7.38621 4.88936 7.3653 4.83895C7.34439 4.78855 7.31375 4.74276 7.27512 4.70421L3.81262 1.24171C3.60845 1.03754 3.27929 1.03754 3.07512 1.24171C2.87095 1.44588 2.87095 1.77505 3.07512 1.97921L6.09179 5.00005L3.07095 8.02088C2.87095 8.22088 2.87095 8.55421 3.07512 8.75421Z" fill="#642B60" stroke="#642B60" stroke-width="0.2"/>
</svg>
