<svg width="18" height="14" viewBox="0 0 18 14" fill="none" xmlns="http://www.w3.org/2000/svg">
<path d="M2.64606 0H16.2046C16.6541 0 17.0852 0.184374 17.403 0.512563C17.7209 0.840752 17.8994 1.28587 17.8994 1.75V12.25C17.8994 12.7141 17.7209 13.1592 17.403 13.4874C17.0852 13.8156 16.6541 14 16.2046 14H2.64606C2.19657 14 1.76548 13.8156 1.44764 13.4874C1.1298 13.1592 0.951242 12.7141 0.951242 12.25V1.75C0.951242 1.28587 1.1298 0.840752 1.44764 0.512563C1.76548 0.184374 2.19657 0 2.64606 0ZM2.64606 4.1125L9.42533 8.77975L16.2046 4.1125V2.00987L9.42533 6.67625L2.64606 2.00987V4.1125Z" fill="#161C2B"/>
</svg>
