<svg width="33" height="32" viewBox="0 0 33 32" fill="none" xmlns="http://www.w3.org/2000/svg">
<path d="M27.1727 13.7025L17.172 4.61066C16.9879 4.44331 16.7481 4.35058 16.4993 4.35059C16.2505 4.35059 16.0106 4.44334 15.8266 4.6107L5.82726 13.7026C5.72418 13.7963 5.64183 13.9105 5.58547 14.0379C5.52911 14.1653 5.5 14.3031 5.5 14.4424V26.0001C5.5 26.2653 5.60536 26.5197 5.79289 26.7072C5.98043 26.8948 6.23478 27.0001 6.5 27.0001H26.5C26.7652 27.0001 27.0196 26.8948 27.2071 26.7072C27.3946 26.5197 27.5 26.2653 27.5 26.0001V14.4425C27.5 14.3031 27.4709 14.1653 27.4145 14.0379C27.3582 13.9105 27.2758 13.7963 27.1727 13.7025Z" stroke="#642B60" stroke-width="2" stroke-linecap="round" stroke-linejoin="round"/>
</svg>
