<svg width="14" height="14" viewBox="0 0 14 14" fill="none" xmlns="http://www.w3.org/2000/svg">
<path d="M7.94709 2.84563C7.91346 1.92654 7.34374 1.17171 6.59903 1.09966C5.92226 1.03419 5.22518 1 4.51321 1C3.80123 1 3.10415 1.03419 2.42738 1.09966C1.68266 1.17172 1.11295 1.92654 1.07931 2.84563C1.02736 4.26513 1 5.73869 1 7.25C1 8.7613 1.02736 10.2349 1.07931 11.6544C1.11295 12.5735 1.68266 13.3283 2.42738 13.4003C3.10415 13.4658 3.80123 13.5 4.51321 13.5C5.22518 13.5 5.92226 13.4658 6.59903 13.4003C7.34374 13.3283 7.91346 12.5735 7.94709 11.6544" stroke="#FF0000" stroke-linecap="round"/>
<path d="M10.1753 10.2118C11.435 9.17964 12.0645 8.55029 13.0465 7.34051C12.0645 6.13072 11.435 5.50138 10.1753 4.46924" stroke="#FF0000" stroke-linecap="round" stroke-linejoin="round"/>
<path d="M4.15186 7.34058H13.0145" stroke="#FF0000" stroke-linecap="round" stroke-linejoin="round"/>
</svg>
