<svg width="12" height="16" viewBox="0 0 12 16" fill="none" xmlns="http://www.w3.org/2000/svg">
<path d="M9.81818 5.86667H9.27273V3.2C9.27273 2.35131 8.92792 1.53737 8.31417 0.937258C7.70041 0.337142 6.86798 0 6 0C5.13202 0 4.29959 0.337142 3.68583 0.937258C3.07208 1.53737 2.72727 2.35131 2.72727 3.2V5.86667H2.18182C1.60336 5.86728 1.04877 6.09224 0.639737 6.49219C0.230704 6.89213 0.000631655 7.43439 0 8V13.8667C0.000631655 14.4323 0.230704 14.9745 0.639737 15.3745C1.04877 15.7744 1.60336 15.9994 2.18182 16H9.81818C10.3966 15.9994 10.9512 15.7744 11.3603 15.3745C11.7693 14.9745 11.9994 14.4323 12 13.8667V8C11.9994 7.43439 11.7693 6.89213 11.3603 6.49219C10.9512 6.09224 10.3966 5.86728 9.81818 5.86667ZM8.18182 5.86667H3.81818V3.2C3.81818 2.6342 4.04805 2.09158 4.45722 1.69151C4.86639 1.29143 5.42135 1.06667 6 1.06667C6.57865 1.06667 7.13361 1.29143 7.54278 1.69151C7.95195 2.09158 8.18182 2.6342 8.18182 3.2V5.86667Z" fill="#642B60"/>
</svg>
