<svg width="22" height="22" viewBox="0 0 22 22" fill="none" xmlns="http://www.w3.org/2000/svg">
<path fill-rule="evenodd" clip-rule="evenodd" d="M10.0835 3.66668C6.53967 3.66668 3.66683 6.53952 3.66683 10.0833C3.66683 13.6272 6.53967 16.5 10.0835 16.5C13.6273 16.5 16.5002 13.6272 16.5002 10.0833C16.5002 6.53952 13.6273 3.66668 10.0835 3.66668ZM1.8335 10.0833C1.8335 5.52699 5.52715 1.83334 10.0835 1.83334C14.6398 1.83334 18.3335 5.52699 18.3335 10.0833C18.3335 14.6397 14.6398 18.3333 10.0835 18.3333C5.52715 18.3333 1.8335 14.6397 1.8335 10.0833Z" fill="#642B60"/>
<path fill-rule="evenodd" clip-rule="evenodd" d="M14.6142 14.6143C14.9722 14.2563 15.5526 14.2563 15.9106 14.6143L19.898 18.6018C20.256 18.9598 20.256 19.5402 19.898 19.8982C19.5401 20.2562 18.9597 20.2562 18.6017 19.8982L14.6142 15.9107C14.2562 15.5527 14.2562 14.9723 14.6142 14.6143Z" fill="#642B60"/>
</svg>
